<svg xmlns="http://www.w3.org/2000/svg" width="250" height="50" viewBox="0 0 250 50" fill="none"><path d="M22.3202 49.0761C21.8808 49.0761 21.6172 48.7246 21.6172 48.3731V26.4042C21.6172 25.9648 21.9687 25.7012 22.3202 25.7012C22.7596 25.7012 23.0232 26.0527 23.0232 26.4042V48.3731C23.0232 48.7246 22.7596 49.0761 22.3202 49.0761Z" fill="white"></path><path d="M41.9166 23.9438C41.4772 23.9438 41.2136 23.5923 41.2136 23.2408V1.27185C41.2136 0.832475 41.5651 0.568848 41.9166 0.568848C42.356 0.568848 42.6196 0.920351 42.6196 1.27185V23.2408C42.7075 23.5923 42.356 23.9438 41.9166 23.9438Z" fill="white"></path><path d="M97.8939 27.8984C97.4545 27.8984 97.1909 27.5469 97.1909 27.1954V5.22644C97.1909 4.78706 97.5424 4.52344 97.8939 4.52344C98.3333 4.52344 98.5969 4.87494 98.5969 5.22644V27.1954C98.6848 27.5469 98.3333 27.8984 97.8939 27.8984Z" fill="white"></path><path d="M138.844 40.3769C138.404 40.3769 138.141 40.0254 138.141 39.6739V17.6171C138.141 17.1777 138.492 16.9141 138.844 16.9141C139.283 16.9141 139.547 17.2656 139.547 17.6171V39.586C139.635 40.0254 139.283 40.3769 138.844 40.3769Z" fill="white"></path><path d="M62.743 8.91699H58.9643C58.4371 8.91699 58.1735 9.18062 58.1735 9.70787V23.5044C58.1735 24.3831 58.0856 25.174 57.9977 25.7891C57.822 26.4043 57.6462 26.8437 57.2947 27.283C56.9432 27.6345 56.5038 27.8982 55.8887 28.0739C55.2736 28.2497 54.5705 28.3375 53.6918 28.3375H44.1133C43.2346 28.3375 42.4437 28.2497 41.9164 28.0739C41.3013 27.8982 40.8619 27.6345 40.5104 27.283C40.1589 26.9315 39.8953 26.4043 39.8074 25.7891C39.5438 25.174 39.5438 24.3831 39.5438 23.5044V9.70787C39.5438 9.18062 39.2802 8.91699 38.7529 8.91699H35.0621C34.5349 8.91699 34.2712 9.18062 34.2712 9.70787V24.0316C34.2712 25.7013 34.447 27.1073 34.7985 28.2497C35.15 29.392 35.6773 30.3587 36.4681 31.0617C37.259 31.7647 38.2257 32.292 39.4559 32.6435C40.6862 32.995 42.1801 33.0828 43.9376 33.0828H53.8675C55.6251 33.0828 57.1189 32.9071 58.3492 32.6435C59.5795 32.292 60.5461 31.7647 61.337 31.0617C62.1279 30.3587 62.6551 29.392 63.0066 28.2497C63.3581 27.1073 63.5339 25.7013 63.5339 24.0316V9.70787C63.5339 9.18062 63.2703 8.91699 62.743 8.91699Z" fill="white"></path><path d="M85.942 11.5533C85.3269 10.4988 84.7996 9.79575 84.1845 9.44425C83.5694 9.09274 82.8664 8.91699 81.9876 8.91699H79.9665C79.2635 8.91699 78.5605 9.09274 78.0332 9.44425C77.506 9.79575 76.8908 10.4988 76.3636 11.5533L65.0276 32.292C64.9397 32.5556 64.8518 32.7313 64.9397 32.8192C65.0276 32.995 65.2033 33.0828 65.467 33.0828H69.9486C70.3001 33.0828 70.5638 32.9071 70.7395 32.6435L73.1122 28.1618H89.3692L91.8297 32.6435C92.0055 32.9071 92.2691 33.0828 92.6206 33.0828H97.0144C97.278 33.0828 97.4538 32.995 97.5416 32.8192C97.6295 32.6435 97.5416 32.4677 97.4538 32.292L85.942 11.5533ZM75.3091 24.2074L80.6695 14.1017C80.7574 13.9259 80.8452 13.838 81.021 13.838H81.1967C81.3725 13.838 81.4604 13.9259 81.5482 14.1017L86.9965 24.2074H75.3091Z" fill="white"></path><path d="M122.235 24.9104C124.08 24.5589 125.398 23.8559 126.189 22.7135C126.98 21.5711 127.42 19.9894 127.42 18.0561V16.1228C127.42 13.7502 126.804 11.9927 125.662 10.7624C124.52 9.53214 122.586 9.00488 119.95 9.00488H101.408C100.705 9.00488 100.354 9.35639 100.354 10.0594V32.4677C100.354 32.995 100.617 33.2586 101.145 33.2586H104.835C105.363 33.2586 105.626 32.995 105.626 32.4677V25.5255H116.787L122.235 32.7313C122.323 32.9071 122.498 32.995 122.586 33.0828C122.674 33.1707 122.938 33.1707 123.201 33.1707H127.683C128.035 33.1707 128.21 33.0828 128.21 32.8192C128.298 32.5556 128.21 32.3798 128.123 32.292L122.235 24.9104ZM122.059 18.2318C122.059 19.2863 121.795 20.0772 121.356 20.5166C120.829 21.0439 120.038 21.3075 118.896 21.3075H105.626V14.1017C105.626 13.8381 105.802 13.6623 106.066 13.6623H118.808C119.95 13.6623 120.829 13.9259 121.268 14.4532C121.795 14.9804 121.971 15.7713 121.971 16.738V18.2318H122.059Z" fill="white"></path><path d="M19.8599 32.5556V27.7224H9.84209C8.96333 27.7224 8.17245 27.6345 7.64519 27.4588C7.03006 27.283 6.59068 27.0194 6.23918 26.6679C5.88768 26.3164 5.62405 25.7891 5.53617 25.2619C5.36042 24.7346 5.27255 23.9438 5.27255 23.065V18.4955C5.27255 17.6167 5.36042 16.8258 5.53617 16.2107C5.71193 15.5956 5.97555 15.1562 6.23918 14.8047C6.59068 14.3653 7.03006 14.1017 7.64519 14.0138C8.26032 13.838 8.96333 13.7502 9.84209 13.7502H20.1236C21.0023 13.7502 21.7932 13.838 22.3205 14.0138C22.9356 14.1895 23.375 14.4532 23.7265 14.8047C24.078 15.1562 24.3416 15.6834 24.4295 16.2107C24.5173 16.7379 24.6931 17.6167 24.6931 18.4955V42.134C24.6931 42.6613 24.9567 42.9249 25.484 42.9249H29.2626C29.7899 42.9249 30.0535 42.6613 30.0535 42.134V9.70787C30.0535 9.18062 29.7899 8.91699 29.2626 8.91699H25.484C25.1325 8.91699 24.8688 9.09274 24.781 9.44425C24.4295 9.35637 23.9022 9.26849 23.4628 9.18062C23.375 9.18062 23.2871 9.09274 23.1992 9.09274H23.0235C22.2326 9.00487 21.3538 8.91699 20.3872 8.91699H17.3994H9.66634C7.90882 8.91699 6.41493 9.09274 5.18467 9.44425C3.95441 9.79575 2.98778 10.323 2.19689 11.026C1.40601 11.729 0.878758 12.6957 0.527255 13.838C0.175752 14.9804 0 16.3864 0 18.0561V23.4165C0 25.0861 0.175752 26.4922 0.527255 27.6345C0.878758 28.7769 1.40601 29.7436 2.19689 30.4466C2.98778 31.1496 3.95441 31.6768 5.18467 32.0283C6.41493 32.3798 7.90882 32.5556 9.66634 32.5556H19.8599Z" fill="white"></path><path d="M131.55 42.134C131.55 42.6613 131.814 42.9249 132.341 42.9249H136.12C136.647 42.9249 136.91 42.6613 136.91 42.134V0.832386C136.91 0.305131 136.647 0.0415039 136.12 0.0415039H132.429C131.902 0.0415039 131.638 0.305131 131.638 0.832386V42.134H131.55Z" fill="white"></path><path d="M158.176 32.2041L151.146 23.2408C150.267 22.0984 149.389 21.3075 148.51 20.7802C148.861 20.5166 149.125 20.1651 149.477 19.8136C149.828 19.4621 150.18 19.0227 150.531 18.4955L157.21 9.79577C157.297 9.62001 157.385 9.44426 157.297 9.26851C157.21 9.09276 157.034 9.00488 156.77 9.00488H152.464C152.113 9.00488 151.937 9.00488 151.849 9.09276C151.761 9.18063 151.586 9.26851 151.498 9.44426L145.522 17.3531C145.259 17.7046 144.995 17.9682 144.819 18.144C144.555 18.3197 144.292 18.4955 144.028 18.5833C143.765 18.6712 143.413 18.7591 143.062 18.847C142.71 18.847 142.271 18.9348 141.656 18.9348H140.689V22.8893H142.007C143.062 22.8893 143.852 22.9771 144.38 23.2408C144.907 23.5044 145.434 23.8559 145.874 24.471L152.201 32.7313C152.289 32.9071 152.464 32.995 152.552 33.0828C152.64 33.1707 152.904 33.1707 153.167 33.1707H157.561C157.913 33.1707 158.088 33.0828 158.088 32.8192C158.352 32.5556 158.264 32.3798 158.176 32.2041Z" fill="white"></path><rect x="163.241" y="9" width="85.8245" height="23.889" rx="2.98612" fill="white"></rect><path d="M173.252 12.8163H184.566C184.943 12.8163 185.118 12.9919 185.118 13.3682V15.8268C185.118 16.2031 184.943 16.4038 184.566 16.4038H173.402C170.818 16.4038 170.066 17.1564 170.066 19.8157V23.3781C170.066 26.0374 170.818 26.8151 173.402 26.8151H184.566C184.943 26.8151 185.118 26.9907 185.118 27.367V29.8256C185.118 30.2019 184.943 30.3775 184.566 30.3775H173.252C168.184 30.3775 166.227 28.5712 166.227 23.7544V19.4394C166.227 14.6226 168.184 12.8163 173.252 12.8163Z" fill="#122F3B"></path><path d="M188.293 11.5619H190.752C191.128 11.5619 191.304 11.7375 191.304 12.1138V29.8256C191.304 30.2019 191.128 30.3775 190.752 30.3775H188.293C187.917 30.3775 187.741 30.2019 187.741 29.8256V12.1138C187.741 11.7375 187.917 11.5619 188.293 11.5619Z" fill="#122F3B"></path><path d="M195.055 16.6045H197.514C197.89 16.6045 198.066 16.8052 198.066 17.1815V29.8256C198.066 30.2019 197.89 30.3775 197.514 30.3775H195.055C194.679 30.3775 194.503 30.2019 194.503 29.8256V17.1815C194.503 16.8052 194.679 16.6045 195.055 16.6045ZM195.055 11.5117H197.514C197.89 11.5117 198.066 11.6873 198.066 12.0636V14.447C198.066 14.8233 197.89 15.024 197.514 15.024H195.055C194.679 15.024 194.478 14.8233 194.478 14.447V12.0636C194.478 11.6873 194.679 11.5117 195.055 11.5117Z" fill="#122F3B"></path><path d="M207.136 16.6045H214.336C218.852 16.6045 220.307 18.0596 220.307 21.6973V29.8256C220.307 30.2019 220.131 30.3775 219.755 30.3775H217.296C216.92 30.3775 216.744 30.2019 216.744 29.8256V22.5502C216.744 20.4429 216.318 19.7906 214.16 19.7906H207.487C205.329 19.7906 204.752 20.4429 204.752 22.5502V29.8256C204.752 30.2019 204.577 30.3775 204.2 30.3775H201.742C201.366 30.3775 201.165 30.2019 201.165 29.8256V21.6973C201.165 18.0596 202.62 16.6045 207.136 16.6045Z" fill="#122F3B"></path><path d="M223.989 16.6045H226.448C226.824 16.6045 227 16.8052 227 17.1815V29.8256C227 30.2019 226.824 30.3775 226.448 30.3775H223.989C223.613 30.3775 223.437 30.2019 223.437 29.8256V17.1815C223.437 16.8052 223.613 16.6045 223.989 16.6045ZM223.989 11.5117H226.448C226.824 11.5117 227 11.6873 227 12.0636V14.447C227 14.8233 226.824 15.024 226.448 15.024H223.989C223.613 15.024 223.412 14.8233 223.412 14.447V12.0636C223.412 11.6873 223.613 11.5117 223.989 11.5117Z" fill="#122F3B"></path><path d="M235.543 16.6045H245.628C245.929 16.6045 246.08 16.755 246.08 17.0561V19.1634C246.08 19.4896 245.929 19.615 245.628 19.615H235.894C233.711 19.615 233.159 20.2673 233.159 22.3746V24.6074C233.159 26.7148 233.711 27.367 235.894 27.367H245.628C245.929 27.367 246.08 27.5176 246.08 27.8186V29.926C246.08 30.227 245.929 30.3775 245.628 30.3775H235.543C231.027 30.3775 229.572 28.9475 229.572 25.3099V21.6973C229.572 18.0596 231.027 16.6045 235.543 16.6045Z" fill="#122F3B"></path></svg>